<svg width="826" height="318" viewBox="0 0 826 318" fill="none" xmlns="http://www.w3.org/2000/svg">
<path d="M5.05616 59.103V37.1475H99.5955V59.103H65.6793V149H39.027V59.103H5.05616ZM123.026 149H93.9701L131.709 37.1475H167.701L205.44 149H176.385L150.115 65.3291H149.241L123.026 149ZM119.148 104.98H179.88V125.515H119.148V104.98ZM217.483 149V37.1475H264.125C272.499 37.1475 279.508 38.3309 285.152 40.6975C290.832 43.0642 295.092 46.3775 297.932 50.6376C300.808 54.8976 302.246 59.8312 302.246 65.4383C302.246 69.6984 301.354 73.5032 299.57 76.853C297.786 80.1663 295.328 82.9153 292.197 85.0999C289.066 87.2845 285.443 88.8138 281.328 89.6876V90.7799C285.843 90.9984 290.012 92.2181 293.835 94.4392C297.695 96.6602 300.79 99.7551 303.12 103.724C305.45 107.656 306.615 112.317 306.615 117.705C306.615 123.713 305.086 129.084 302.028 133.817C298.969 138.514 294.545 142.228 288.756 144.958C282.967 147.653 275.94 149 267.675 149H217.483ZM244.518 127.208H261.23C267.092 127.208 271.407 126.098 274.174 123.877C276.977 121.656 278.379 118.561 278.379 114.592C278.379 111.716 277.706 109.24 276.358 107.165C275.011 105.053 273.1 103.432 270.624 102.304C268.148 101.139 265.18 100.556 261.722 100.556H244.518V127.208ZM244.518 83.1338H259.482C262.432 83.1338 265.053 82.6422 267.347 81.6591C269.641 80.6761 271.425 79.2561 272.699 77.3991C274.01 75.5422 274.665 73.303 274.665 70.6814C274.665 66.9312 273.336 63.9819 270.678 61.8337C268.02 59.6855 264.434 58.6114 259.919 58.6114H244.518V83.1338ZM319.614 149V37.1475H397.605V59.103H346.649V82.0414H393.618V104.051H346.649V127.045H397.605V149H319.614ZM438.73 149H409.675L447.414 37.1475H483.406L521.145 149H492.09L465.82 65.3291H464.946L438.73 149ZM434.853 104.98H495.585V125.515H434.853V104.98Z" fill="black"/>
<path d="M197.979 202.629C197.615 198.624 195.995 195.511 193.118 193.29C190.278 191.033 186.219 189.904 180.939 189.904C177.444 189.904 174.531 190.359 172.201 191.269C169.87 192.179 168.123 193.436 166.958 195.038C165.792 196.603 165.192 198.406 165.155 200.445C165.082 202.119 165.41 203.594 166.138 204.868C166.903 206.143 167.995 207.271 169.415 208.255C170.872 209.201 172.619 210.039 174.658 210.767C176.697 211.495 178.991 212.132 181.54 212.678L191.152 214.863C196.687 216.065 201.566 217.667 205.789 219.669C210.049 221.672 213.617 224.057 216.494 226.824C219.407 229.591 221.609 232.777 223.102 236.382C224.595 239.986 225.36 244.028 225.396 248.506C225.36 255.57 223.576 261.632 220.044 266.693C216.512 271.754 211.433 275.632 204.806 278.326C198.216 281.021 190.26 282.368 180.939 282.368C171.582 282.368 163.426 280.966 156.471 278.162C149.517 275.359 144.11 271.099 140.251 265.382C136.391 259.666 134.407 252.438 134.298 243.7H160.185C160.404 247.305 161.369 250.308 163.08 252.712C164.791 255.115 167.14 256.935 170.125 258.173C173.147 259.411 176.643 260.03 180.611 260.03C184.252 260.03 187.347 259.538 189.896 258.555C192.481 257.572 194.466 256.207 195.849 254.459C197.233 252.712 197.943 250.709 197.979 248.452C197.943 246.34 197.287 244.537 196.013 243.045C194.739 241.515 192.772 240.205 190.115 239.112C187.493 237.984 184.143 236.946 180.065 235.999L168.378 233.268C158.692 231.047 151.064 227.461 145.494 222.509C139.923 217.521 137.156 210.785 137.192 202.301C137.156 195.384 139.013 189.321 142.763 184.115C146.513 178.908 151.702 174.848 158.328 171.935C164.955 169.022 172.51 167.566 180.994 167.566C189.659 167.566 197.178 169.041 203.55 171.99C209.958 174.903 214.928 178.999 218.46 184.278C221.992 189.558 223.794 195.675 223.867 202.629H197.979ZM239.05 280.948V169.095H285.255C293.629 169.095 300.856 170.734 306.937 174.011C313.054 177.251 317.769 181.784 321.082 187.61C324.396 193.399 326.052 200.135 326.052 207.818C326.052 215.537 324.359 222.291 320.973 228.08C317.623 233.833 312.835 238.293 306.609 241.461C300.383 244.628 292.992 246.212 284.435 246.212H255.926V224.912H279.411C283.489 224.912 286.893 224.202 289.624 222.782C292.391 221.362 294.485 219.378 295.905 216.829C297.325 214.244 298.035 211.24 298.035 207.818C298.035 204.359 297.325 201.373 295.905 198.861C294.485 196.312 292.391 194.346 289.624 192.962C286.857 191.579 283.452 190.887 279.411 190.887H266.085V280.948H239.05ZM350.056 280.948H321L358.74 169.095H394.731L432.471 280.948H403.415L377.145 197.277H376.271L350.056 280.948ZM346.178 236.928H406.911V257.463H346.178V236.928ZM359.777 158.445C356.355 158.445 353.424 157.28 350.984 154.95C348.581 152.62 347.38 149.816 347.38 146.539C347.38 143.262 348.581 140.477 350.984 138.183C353.424 135.853 356.355 134.688 359.777 134.688C363.164 134.688 366.04 135.853 368.407 138.183C370.81 140.477 372.011 143.262 372.011 146.539C372.011 149.816 370.81 152.62 368.407 154.95C366.04 157.28 363.164 158.445 359.777 158.445ZM393.857 158.445C390.435 158.445 387.504 157.28 385.064 154.95C382.661 152.62 381.46 149.816 381.46 146.539C381.46 143.262 382.661 140.477 385.064 138.183C387.504 135.853 390.435 134.688 393.857 134.688C397.244 134.688 400.12 135.853 402.487 138.183C404.89 140.477 406.091 143.262 406.091 146.539C406.091 149.816 404.89 152.62 402.487 154.95C400.12 157.28 397.244 158.445 393.857 158.445ZM539.708 169.095V280.948H516.77L472.258 216.392H471.548V280.948H444.513V169.095H467.78L511.8 233.542H512.728V169.095H539.708ZM583.742 169.095V280.948H556.707V169.095H583.742ZM702.244 209.62H674.936C674.572 206.816 673.825 204.286 672.697 202.028C671.568 199.771 670.075 197.841 668.218 196.239C666.361 194.637 664.158 193.417 661.61 192.58C659.097 191.706 656.312 191.269 653.254 191.269C647.828 191.269 643.15 192.598 639.217 195.256C635.322 197.914 632.318 201.755 630.206 206.78C628.13 211.805 627.093 217.885 627.093 225.022C627.093 232.449 628.149 238.675 630.26 243.7C632.409 248.688 635.413 252.457 639.272 255.005C643.168 257.518 647.774 258.774 653.09 258.774C656.075 258.774 658.788 258.392 661.227 257.627C663.703 256.862 665.87 255.752 667.727 254.295C669.62 252.803 671.167 251 672.369 248.888C673.607 246.74 674.463 244.319 674.936 241.625L702.244 241.788C701.77 246.74 700.332 251.619 697.929 256.425C695.562 261.232 692.304 265.619 688.153 269.588C684.002 273.52 678.941 276.651 672.97 278.982C667.035 281.312 660.226 282.477 652.544 282.477C642.422 282.477 633.355 280.256 625.345 275.814C617.371 271.335 611.072 264.818 606.448 256.262C601.824 247.705 599.512 237.292 599.512 225.022C599.512 212.715 601.86 202.283 606.557 193.727C611.254 185.17 617.608 178.671 625.618 174.229C633.628 169.787 642.604 167.566 652.544 167.566C659.316 167.566 665.578 168.513 671.331 170.406C677.084 172.263 682.145 174.994 686.514 178.598C690.884 182.167 694.434 186.554 697.164 191.761C699.895 196.967 701.588 202.92 702.244 209.62ZM717.714 280.948V169.095H744.748V213.989H788.823V169.095H815.803V280.948H788.823V235.999H744.748V280.948H717.714Z" fill="black"/>
<circle cx="359.221" cy="146.653" r="13.1331" fill="#5465FF"/>
<circle cx="394.243" cy="146.653" r="13.1331" fill="#5465FF"/>
</svg>
